<svg width="300" height="129" viewBox="0 0 300 129" fill="none" xmlns="http://www.w3.org/2000/svg">
<path d="M71.5909 71.7485C70.1872 73.1475 69.1845 74.9462 68.5829 76.745H23.8636H23.6631C23.0615 74.9462 22.0588 73.1475 20.6551 71.7485C19.0508 70.1497 17.246 69.1504 15.2406 68.7507V68.5508V23.7829C17.246 23.1834 19.0508 22.1841 20.6551 20.7851C21.6578 19.5859 22.6604 18.3868 23.262 16.9878H69.1845C69.7861 18.3868 70.5882 19.5859 71.7914 20.7851C74.1979 23.1834 77.2059 24.3825 80.4144 24.3825C83.623 24.3825 86.631 23.1834 89.0374 20.7851C91.2433 18.5867 92.6471 15.389 92.6471 12.1913C92.6471 8.99355 91.4438 5.9957 89.0374 3.59742C86.631 1.19914 83.4225 0 80.2139 0C77.0053 0 73.9973 1.19914 71.5909 3.59742C69.7861 5.39613 68.5829 7.59455 68.1818 9.99283H24.0642C23.6631 7.59455 22.4599 5.39613 20.6551 3.59742C18.4492 1.19914 15.4412 0 12.0321 0C8.62299 0 5.81551 1.19914 3.60963 3.59742C-1.20321 8.39398 -1.20321 15.9885 3.60963 20.7851C5.01337 22.1841 6.61765 22.9835 8.42246 23.5831V68.5508C8.42246 68.7507 8.42246 68.9505 8.42246 68.9505C6.61765 69.5501 5.01337 70.5494 3.60963 71.7485C-1.20321 76.5451 -1.20321 84.1396 3.60963 88.9362C5.81551 91.1346 9.02406 92.5336 12.2326 92.5336C15.4412 92.5336 18.4492 91.3345 20.8556 88.9362C22.2594 87.5372 23.262 85.7385 23.8636 83.9398H24.0642H68.7834C69.385 85.7385 70.3877 87.5372 71.7914 88.9362C73.9973 91.1346 77.2059 92.5336 80.4144 92.5336C83.623 92.5336 86.631 91.3345 89.0374 88.9362C91.2433 86.7378 92.6471 83.5401 92.6471 80.3424C92.6471 77.1447 91.4438 74.1468 89.0374 71.7485C84.0241 67.1518 76.4037 67.1518 71.5909 71.7485ZM76.6043 8.39398C77.6069 7.3947 78.8102 6.99498 80.2139 6.99498C81.6176 6.99498 82.8208 7.59455 83.8235 8.39398C84.8262 9.19341 85.2273 10.5924 85.2273 11.9914C85.2273 13.3904 84.6257 14.5895 83.8235 15.5888C81.8182 17.5874 78.6096 17.5874 76.6043 15.5888C74.5989 13.7901 74.5989 10.3925 76.6043 8.39398ZM8.42246 8.39398C9.42513 7.59455 10.8289 6.99498 12.0321 6.99498C13.2353 6.99498 14.639 7.59455 15.6417 8.39398C17.6471 10.3925 17.6471 13.5903 15.6417 15.5888C13.6364 17.5874 10.4278 17.5874 8.42246 15.5888C6.61765 13.7901 6.61765 10.3925 8.42246 8.39398ZM15.8422 83.9398C13.8369 85.9384 10.6283 85.9384 8.62299 83.9398C6.61765 81.9412 6.61765 78.7435 8.62299 76.745C10.6283 74.7464 13.8369 74.7464 15.8422 76.745C17.6471 78.7435 17.6471 81.9412 15.8422 83.9398ZM83.8235 83.9398C81.8182 85.9384 78.6096 85.9384 76.6043 83.9398C74.5989 81.9412 74.5989 78.7435 76.6043 76.745C78.6096 74.7464 81.8182 74.7464 83.8235 76.745C84.8262 77.7442 85.2273 78.9434 85.2273 80.3424C85.2273 81.7414 84.8262 82.9405 83.8235 83.9398Z" fill="#FF33CC"/>
<path d="M103.877 110.92H56.5507C54.5454 110.92 52.9411 112.519 52.9411 114.518C52.9411 116.516 54.5454 118.115 56.5507 118.115H103.676C105.682 118.115 107.286 116.516 107.286 114.518C107.286 112.519 105.682 110.92 103.877 110.92Z" fill="#0000FF"/>
<path d="M56.7513 49.5644H102.874C104.88 49.5644 106.484 47.9656 106.484 45.967C106.484 43.9684 104.88 42.3696 102.874 42.3696H56.7513C54.746 42.3696 53.1417 43.9684 53.1417 45.967C53.1417 47.9656 54.9465 49.5644 56.7513 49.5644Z" fill="#FF33CC"/>
<path d="M46.7248 102.127C43.5162 102.127 40.5082 103.326 38.1018 105.724C35.8959 107.922 34.4922 111.12 34.4922 114.318C34.4922 117.516 35.6954 120.513 38.1018 122.912C40.5082 125.31 43.5162 126.509 46.7248 126.509C49.7328 126.509 52.9414 125.31 55.3478 122.912C60.1606 118.115 60.1606 110.521 55.3478 105.724C52.9414 103.526 49.9334 102.127 46.7248 102.127ZM50.3344 117.915C48.3291 119.914 45.1205 119.914 43.1152 117.915C42.1125 116.916 41.7114 115.717 41.7114 114.318C41.7114 112.919 42.313 111.72 43.1152 110.72C43.9173 109.721 45.3211 109.321 46.7248 109.321C48.1285 109.321 49.3318 109.921 50.3344 110.72C52.3398 112.719 52.3398 115.917 50.3344 117.915Z" fill="#FF33CC"/>
<path d="M123.329 105.724C121.925 104.325 120.321 103.326 118.516 102.726V57.9584C118.516 55.9598 116.912 54.361 114.907 54.361C112.901 54.361 111.698 55.9598 111.698 57.9584V102.726C109.693 103.326 107.888 104.325 106.284 105.924C101.471 110.721 101.471 118.315 106.284 123.112C108.69 125.51 111.698 126.709 114.907 126.709C118.115 126.709 121.123 125.51 123.53 123.112C128.142 118.115 128.142 110.521 123.329 105.724ZM118.516 117.915C116.511 119.914 113.302 119.914 111.297 117.915C109.292 115.917 109.292 112.719 111.297 110.721C112.3 109.721 113.503 109.322 114.907 109.322C116.31 109.322 117.514 109.921 118.516 110.721C120.321 112.719 120.321 115.917 118.516 117.915Z" fill="#FF33CC"/>
<path d="M162.032 70.5494C159.225 70.5494 156.818 69.9498 154.612 68.9505C152.406 67.7514 150.602 66.1525 149.398 63.9541C148.195 61.7557 147.594 59.1576 147.594 56.1597V55.3603C147.594 52.3624 148.195 49.7643 149.398 47.5659C150.602 45.3675 152.406 43.7686 154.612 42.5695C156.818 41.3703 159.225 40.9706 162.032 40.9706C164.639 40.9706 167.046 41.3703 168.85 42.3696C170.856 43.3689 172.259 44.568 173.463 46.1669C174.666 47.7657 175.468 49.5644 175.669 51.7629L169.452 53.1619C169.251 51.9627 169.051 50.9634 168.449 49.9642C167.848 48.9649 167.046 48.1654 166.043 47.7657C165.04 47.1662 163.636 46.9663 162.233 46.9663C160.628 46.9663 159.225 47.366 158.021 47.9656C156.818 48.5652 155.816 49.5644 155.214 50.9634C154.612 52.3624 154.211 53.9613 154.211 55.76V56.3596C154.211 58.1583 154.612 59.7571 155.214 61.1561C155.816 62.3553 156.818 63.3546 158.021 64.154C159.225 64.7535 160.628 65.1533 162.233 65.1533C164.439 65.1533 166.243 64.5537 167.447 63.3546C168.65 62.1554 169.452 60.5566 169.652 58.7579L175.869 60.1568C175.468 62.1554 174.666 63.9541 173.463 65.553C172.259 67.1518 170.655 68.5508 168.85 69.3503C167.046 70.1497 164.639 70.5494 162.032 70.5494Z" fill="#0000FF"/>
<path d="M185.495 38.3725C184.291 38.3725 183.289 37.9728 182.487 37.1733C181.684 36.3739 181.283 35.3746 181.283 34.1755C181.283 32.9763 181.684 31.7772 182.487 31.1776C183.289 30.3782 184.291 29.9785 185.495 29.9785C186.698 29.9785 187.7 30.3782 188.503 31.1776C189.305 31.9771 189.706 32.9763 189.706 34.1755C189.706 35.3746 189.305 36.5738 188.503 37.1733C187.7 37.7729 186.698 38.3725 185.495 38.3725ZM182.286 69.75V41.9699H188.703V69.9498H182.286V69.75Z" fill="#0000FF"/>
<path d="M203.142 69.7499L193.917 41.7699H200.735L207.554 64.9533H208.556L215.575 41.7699H222.393L213.169 69.7499H203.142Z" fill="#0000FF"/>
<path d="M231.217 38.3725C230.014 38.3725 229.011 37.9728 228.209 37.1733C227.407 36.3739 227.006 35.3746 227.006 34.1755C227.006 32.9763 227.407 31.7772 228.209 31.1776C229.011 30.3782 230.014 29.9785 231.217 29.9785C232.42 29.9785 233.423 30.3782 234.225 31.1776C235.027 31.9771 235.428 32.9763 235.428 34.1755C235.428 35.3746 235.027 36.5738 234.225 37.1733C233.423 37.7729 232.42 38.3725 231.217 38.3725ZM228.008 69.75V41.9699H234.425V69.9498H228.008V69.75Z" fill="#0000FF"/>
<path d="M255.882 70.5494C253.075 70.5494 250.668 69.9498 248.462 68.9505C246.257 67.7514 244.452 66.1525 243.249 63.9541C242.045 61.7557 241.444 59.1576 241.444 56.1597V55.3603C241.444 52.3624 242.045 49.7643 243.249 47.5659C244.452 45.3675 246.257 43.7686 248.462 42.5695C250.668 41.3703 253.075 40.9706 255.882 40.9706C258.489 40.9706 260.896 41.3703 262.7 42.3696C264.706 43.3689 266.11 44.568 267.313 46.1669C268.516 47.7657 269.318 49.5644 269.519 51.7629L263.302 53.1619C263.102 51.9627 262.7 50.9634 262.299 49.9642C261.698 48.9649 260.896 48.1654 259.893 47.7657C258.89 47.1662 257.487 46.9663 256.083 46.9663C254.478 46.9663 253.075 47.366 251.872 47.9656C250.668 48.5652 249.666 49.5644 249.064 50.9634C248.462 52.3624 248.061 53.9613 248.061 55.76V56.3596C248.061 58.1583 248.462 59.7571 249.064 61.1561C249.666 62.3553 250.668 63.3546 251.872 64.154C253.075 64.7535 254.478 65.1533 256.083 65.1533C258.289 65.1533 260.093 64.5537 261.297 63.3546C262.5 62.1554 263.302 60.5566 263.503 58.7579L269.719 60.1568C269.318 62.1554 268.516 63.9541 267.313 65.553C266.11 67.1518 264.505 68.5508 262.7 69.3503C260.896 70.1497 258.489 70.5494 255.882 70.5494Z" fill="#0000FF"/>
<path d="M160.428 117.715C158.222 117.715 156.016 117.116 154.011 116.117C152.005 114.917 150.401 113.319 149.398 111.32C148.195 109.122 147.594 106.524 147.594 103.526V102.526C147.594 99.5285 148.195 96.9304 149.398 94.732C150.602 92.5336 152.206 90.9347 154.011 89.9354C156.016 88.7363 158.021 88.3366 160.428 88.3366C162.233 88.3366 163.636 88.5364 164.84 88.9361C166.043 89.3359 167.046 89.9354 167.848 90.535C168.65 91.1346 169.251 91.934 169.652 92.5336H170.455V77.3445H176.872V116.916H170.455V113.319H169.452C168.85 114.518 167.647 115.517 166.243 116.317C165.04 117.116 163.035 117.715 160.428 117.715ZM162.233 111.92C164.639 111.92 166.444 111.12 168.048 109.721C169.652 108.322 170.455 106.124 170.455 103.126V102.526C170.455 99.7284 169.652 97.53 168.249 95.9311C166.644 94.3323 164.84 93.7327 162.433 93.7327C160.027 93.7327 158.222 94.5321 156.618 95.9311C155.013 97.53 154.211 99.5285 154.211 102.526V103.126C154.211 105.924 155.013 108.122 156.618 109.721C158.021 111.32 159.826 111.92 162.233 111.92Z" fill="#0000FF"/>
<path d="M188.302 85.3388C187.099 85.3388 186.097 84.9391 185.294 84.1396C184.492 83.3402 184.091 82.3409 184.091 81.1418C184.091 79.9426 184.492 78.7435 185.294 78.1439C186.097 77.3445 187.099 76.9448 188.302 76.9448C189.506 76.9448 190.508 77.3445 191.31 78.1439C192.113 78.9434 192.514 79.9426 192.514 81.1418C192.514 82.3409 192.113 83.5401 191.31 84.1396C190.508 84.7392 189.506 85.3388 188.302 85.3388ZM185.094 116.916V88.9362H191.511V116.916H185.094Z" fill="#0000FF"/>
<path d="M198.529 103.126V102.327C198.529 99.3287 199.131 96.9304 200.334 94.732C201.537 92.7334 203.142 91.1346 204.947 89.9354C206.952 88.7363 209.158 88.3366 211.364 88.3366C213.971 88.3366 215.976 88.7363 217.38 89.7356C218.783 90.7349 219.786 91.7341 220.388 92.7334H221.39V89.136H227.807V122.312C227.807 124.111 227.206 125.71 226.203 126.709C225.201 127.708 223.797 128.308 221.992 128.308H203.142V122.712H219.786C220.789 122.712 221.39 122.112 221.39 121.113V113.119H220.388C219.987 113.718 219.385 114.318 218.783 115.117C217.981 115.717 217.179 116.317 215.976 116.716C214.773 117.116 213.369 117.316 211.564 117.316C209.158 117.316 207.152 116.716 205.147 115.717C203.142 114.518 201.537 112.919 200.535 110.92C199.131 108.522 198.529 105.924 198.529 103.126ZM213.168 111.32C215.575 111.32 217.38 110.521 218.984 109.122C220.588 107.723 221.39 105.524 221.39 102.926V102.327C221.39 99.5286 220.588 97.53 219.184 96.131C217.781 94.732 215.775 93.9326 213.369 93.9326C210.963 93.9326 209.158 94.732 207.553 96.131C205.949 97.53 205.147 99.7284 205.147 102.327V102.926C205.147 105.524 205.949 107.723 207.553 109.122C208.957 110.521 210.963 111.32 213.168 111.32Z" fill="#0000FF"/>
<path d="M239.238 85.3388C238.035 85.3388 237.032 84.9391 236.23 84.1396C235.428 83.3402 235.027 82.3409 235.027 81.1418C235.027 79.9426 235.428 78.7435 236.23 78.1439C237.032 77.3445 238.035 76.9448 239.238 76.9448C240.441 76.9448 241.444 77.3445 242.246 78.1439C243.048 78.9434 243.449 79.9426 243.449 81.1418C243.449 82.3409 243.048 83.5401 242.246 84.1396C241.444 84.7392 240.642 85.3388 239.238 85.3388ZM236.03 116.916V88.9362H242.447V116.916H236.03Z" fill="#0000FF"/>
<path d="M261.498 116.916C259.693 116.916 258.289 116.317 257.086 115.317C256.083 114.318 255.482 112.719 255.482 110.92V94.3323H248.262V88.9362H255.482V79.9426H261.899V88.9362H269.92V94.3323H261.899V109.721C261.899 110.92 262.5 111.32 263.503 111.32H269.118V116.716H261.498V116.916Z" fill="#0000FF"/>
<path d="M288.369 117.716C284.76 117.716 281.752 116.916 279.345 115.317C276.939 113.718 275.535 111.52 275.134 108.322L281.15 106.723C281.35 108.122 281.952 109.322 282.554 110.121C283.155 110.92 284.158 111.52 285.161 111.92C286.163 112.319 287.166 112.519 288.369 112.519C290.174 112.519 291.377 112.12 292.38 111.52C293.182 110.92 293.784 110.121 293.784 109.122C293.784 108.122 293.383 107.323 292.58 106.923C291.778 106.524 290.375 105.924 288.77 105.724L286.965 105.524C284.96 105.125 283.356 104.725 281.752 103.925C280.147 103.326 278.944 102.327 277.941 101.127C276.939 99.9283 276.538 98.5293 276.538 96.7306C276.538 93.9326 277.54 91.934 279.546 90.535C281.551 89.136 284.158 88.3366 287.567 88.3366C290.776 88.3366 293.383 88.9361 295.388 90.3351C297.393 91.7341 298.797 93.5329 299.399 95.9311L293.383 97.7298C292.981 96.131 292.38 94.9318 291.377 94.3323C290.375 93.7327 289.171 93.333 287.567 93.333C285.963 93.333 284.96 93.5328 284.158 94.1324C283.356 94.732 282.955 95.3316 282.955 96.3308C282.955 97.3301 283.356 98.1296 284.158 98.5293C284.96 98.929 286.163 99.3287 287.567 99.5286L288.77 99.9283C290.776 100.328 292.781 100.728 294.385 101.327C295.99 101.927 297.393 102.726 298.396 103.925C299.399 105.125 299.8 106.524 299.8 108.522C299.8 111.52 298.797 113.718 296.591 115.117C294.385 116.516 291.778 117.716 288.369 117.716Z" fill="#0000FF"/>
<path d="M123.329 37.3731C118.516 32.5765 110.896 32.5765 106.083 37.3731C101.27 42.1696 101.27 49.7642 106.083 54.5608C108.289 56.7592 111.498 58.1582 114.706 58.1582C117.915 58.1582 120.923 56.959 123.329 54.5608C128.142 49.7642 128.142 42.1696 123.329 37.3731ZM118.516 49.5643C116.511 51.5629 113.302 51.5629 111.297 49.5643C109.292 47.5658 109.292 44.3681 111.297 42.3695C112.3 41.3702 113.703 40.9705 114.907 40.9705C116.11 40.9705 117.514 41.3702 118.516 42.3695C120.321 44.3681 120.321 47.5658 118.516 49.5643ZM55.3478 37.3731C50.535 32.5765 42.9146 32.5765 38.1018 37.3731C35.8959 39.5715 34.4922 42.7692 34.4922 45.9669C34.4922 49.1646 35.6954 52.1625 38.1018 54.5608C40.3077 56.7592 43.5162 58.1582 46.7248 58.1582C49.9334 58.1582 52.9414 56.959 55.3478 54.5608C59.9601 49.7642 59.9601 42.1696 55.3478 37.3731ZM50.3344 49.5643C48.3291 51.5629 45.1205 51.5629 43.1152 49.5643C42.1125 48.5651 41.7114 47.3659 41.7114 45.9669C41.7114 44.5679 42.313 43.3688 43.1152 42.3695C44.1179 41.3702 45.5216 40.9705 46.7248 40.9705C47.928 40.9705 49.3318 41.3702 50.3344 42.3695C52.3398 44.3681 52.3398 47.5658 50.3344 49.5643Z" fill="#0000FF"/>
</svg>
